<?xml version="1.0" encoding="utf-8"?>
<!-- Generator: Adobe Illustrator 21.0.0, SVG Export Plug-In . SVG Version: 6.00 Build 0)  -->
<svg version="1.1" id="Layer_1" xmlns="http://www.w3.org/2000/svg" xmlns:xlink="http://www.w3.org/1999/xlink" x="0px" y="0px"
	 viewBox="0 0 27 23" style="enable-background:new 0 0 27 23;" xml:space="preserve">
<style type="text/css">
	.st0{fill:#e9e9e9;}
</style>
<g id="Layer_1_1_">
</g>
<g id="Layer_2">
	<g>
		<polygon class="st0" points="7.3,7.5 4.5,10.3 12.2,18.1 26.2,4.2 23.3,1.3 12.2,12.4 		"/>
		<path class="st0" d="M21,20c0,0.5-0.5,1-1,1H3c-0.5,0-1-0.5-1-1V3c0-0.5,0.5-1,1-1h16.9l1.6-1.6C21.1,0.2,20.5,0,20,0H3
			C1.4,0,0,1.4,0,3v17c0,1.6,1.4,3,3,3h17c1.6,0,3-1.4,3-3v-9.8l-2,2V20z"/>
	</g>
</g>
</svg>
