<?xml version="1.0" encoding="utf-8"?>
<!-- Generator: Adobe Illustrator 18.1.0, SVG Export Plug-In . SVG Version: 6.00 Build 0)  -->
<svg version="1.1" id="Layer_1" xmlns="http://www.w3.org/2000/svg" xmlns:xlink="http://www.w3.org/1999/xlink" x="0px" y="0px"
	 viewBox="0 0 1000 1000" enable-background="new 0 0 1000 1000" xml:space="preserve">
<path fill="#E9E9E9" d="M869.6,87c21.7,0,43.5,21.7,43.5,43.5v739.1c0,21.7-21.7,43.5-43.5,43.5H130.4c-21.7,0-43.5-21.7-43.5-43.5
	V130.4c0-21.7,21.7-43.5,43.5-43.5H869.6 M869.6,0H130.4C60.9,0,0,60.9,0,130.4v739.1C0,939.1,60.9,1000,130.4,1000h739.1
	c69.6,0,130.4-60.9,130.4-130.4V130.4C1000,60.9,939.1,0,869.6,0L869.6,0z"/>
</svg>
